<?xml version="1.0" encoding="utf-8"?>
<!-- Generator: Adobe Illustrator 19.2.1, SVG Export Plug-In . SVG Version: 6.00 Build 0)  -->
<svg version="1.1" id="Layer_1" xmlns="http://www.w3.org/2000/svg" xmlns:xlink="http://www.w3.org/1999/xlink" x="0px" y="0px"
	 viewBox="0 0 32 32" style="enable-background:new 0 0 32 32;" xml:space="preserve">
<style type="text/css">
	.st0{fill:url(#SVGID_1_);}
	.st1{fill:#333333;}
	.st2{display:none;fill:#7AACDD;stroke:#000000;stroke-miterlimit:10;}
	.st3{display:none;fill:#389650;}
	.st4{fill:url(#SVGID_2_);}
	.st5{fill:none;stroke:#FFFFFF;stroke-width:1.9232;stroke-miterlimit:10;}
</style>
<linearGradient id="SVGID_1_" gradientUnits="userSpaceOnUse" x1="1.5075" y1="12.1181" x2="30.4925" y2="19.8846">
	<stop  offset="0" style="stop-color:#8CAEFF"/>
	<stop  offset="0.1603" style="stop-color:#5485FF"/>
	<stop  offset="1" style="stop-color:#13006A"/>
</linearGradient>
<circle class="st0" cx="16" cy="16" r="15"/>
<image style="display:none;overflow:visible;opacity:0.28;enable-background:new    ;" width="1920" height="1244" xlink:href="D5445DB2AAE6C095.png"  transform="matrix(0.5156 0 0 0.5156 -498 -316.2812)">
</image>
<g>
	<path class="st1" d="M9,3"/>
</g>
<circle class="st2" cx="-59" cy="30.4" r="273"/>
<polygon class="st3" points="-129,256 -149,256 -170.5,233.2 -191,188 -191,166 -199.2,132 -209.1,87 -235.1,67 -259,21 -254.5,-15 
	-245,-34 -245,-51 -259,-51 -273,-59 -273,-71 -289,-71 -301,-80.8 -321,-101.9 -252,-269.9 -113.7,-237.1 -104,-229 -104,-220 
	-117,-220 -132,-220 -145,-206.8 -165,-200.9 -188,-184.9 -204,-171 -224,-157 -225,-141 -234,-137 -233,-150 -259,-139 -277,-120 
	-287,-101 -282.5,-92 -268,-109 -268,-98 -266.2,-87 -262.1,-65 -247.1,-62 -227,-70 -203,-77 -175,-78 -151,-60 -123,-53 -110,-41 
	-103.5,-25 -55,-7.2 -23,7 -16,19 -30.5,42 -42,56 -42,79 -59.2,110 -85.1,120 -95.1,132 -96,147.5 -116,177 -135,177 -135,193 
	-151.8,212 -147,228 -147,241 "/>
<polygon class="st3" points="201.2,162.8 156.6,178.4 165.8,162.2 173.9,128.1 179.5,95 192,51 184,10 179.5,-23.5 162,-38 131,-38 
	107,-49.8 91.5,-72.9 74,-95 74,-120 65.8,-132 77.4,-153 84,-166 84,-179 65,-188 65,-200 78,-200 35,-235.8 131,-188.9 95,-187.9 
	101,-177.5 96,-168 114,-168 135,-154.8 201.2,-104.9 251,0.1 "/>
<linearGradient id="SVGID_2_" gradientUnits="userSpaceOnUse" x1="15.9965" y1="15.7768" x2="30.5509" y2="19.4056">
	<stop  offset="0" style="stop-color:#000000;stop-opacity:0.2"/>
	<stop  offset="1" style="stop-color:#000000;stop-opacity:0.4"/>
</linearGradient>
<path class="st4" d="M19.6,1.2l-7.3,29.1c8,2,16.2-2.9,18.2-10.9C32.6,11.4,27.7,3.2,19.6,1.2z"/>
<circle class="st5" cx="16" cy="16" r="15"/>
</svg>
